<svg width="183" height="38" viewBox="0 0 183 38" fill="none" xmlns="http://www.w3.org/2000/svg">
<g clip-path="url(#clip0_243_3171)">
<path d="M0 0H7.38468V30.5738H19.95V36.6247H0V0Z" fill="white"/>
<path d="M72.0655 0C75.145 0 77.5345 0.777606 79.2442 2.33282C80.9539 3.88803 81.8087 6.25689 81.8087 9.43426C81.8087 11.8958 81.3143 13.9042 80.3204 15.4594C79.3265 17.0146 77.7868 18.0137 75.7063 18.4617V18.5647C77.555 18.8376 78.9043 19.435 79.7591 20.3619C80.614 21.2837 81.1444 22.772 81.3504 24.8267C81.4173 25.5117 81.3504 36.6247 81.3504 36.6247H74.1202V25.7485C74.0532 24.3118 73.6928 23.184 73.0439 22.3652C72.395 21.5464 71.2982 21.1344 69.7635 21.1344H65.2987V36.6247H57.9141V0H72.0706H72.0655ZM68.8881 16.0053C70.6647 16.0053 72.0346 15.5882 72.9924 14.7488C73.9503 13.9094 74.4292 12.4983 74.4292 10.5157C74.4292 7.13235 72.7195 5.43809 69.3001 5.43809H65.2987V16.0053H68.8932H68.8881Z" fill="white"/>
<path d="M85.8605 16.8243C85.8605 15.2175 86.118 13.8735 86.6278 12.7972C87.1428 11.7209 87.8329 10.8454 88.7032 10.1811C89.5735 9.51682 90.6034 9.0379 91.7827 8.74437C92.962 8.45598 94.2185 8.30664 95.5523 8.30664C97.674 8.30664 99.3837 8.51263 100.681 8.92461C101.979 9.33658 102.988 9.9185 103.709 10.6704C104.425 11.4222 104.914 12.3234 105.172 13.3637C105.429 14.409 105.558 15.542 105.558 16.7728V31.2898C105.558 32.5875 105.393 35.8061 105.738 36.6249H99.1468C98.9047 36.182 98.8944 34.2303 98.7915 33.7513H98.6885C97.8697 35.1881 96.917 36.1202 95.8407 36.5476C94.7644 36.9751 93.3688 37.1914 91.6591 37.1914C90.4283 37.1914 89.3829 36.9751 88.5281 36.5476C87.6732 36.1202 86.9883 35.5331 86.4785 34.7761C85.9635 34.0243 85.5876 33.1797 85.3507 32.2373C85.1087 31.2949 84.9902 30.368 84.9902 29.441C84.9902 28.1433 85.1241 27.0207 85.4022 26.0834C85.6751 25.141 86.0923 24.3377 86.6587 23.6734C87.2252 23.0091 87.941 22.4529 88.8113 22.0049C89.6816 21.562 90.7373 21.1655 91.9681 20.8256L95.9694 19.7493C97.0303 19.4764 97.7667 19.1004 98.1735 18.6215C98.5855 18.1426 98.7915 17.4422 98.7915 16.5204C98.7915 15.4596 98.5443 14.6305 98.0499 14.0331C97.5555 13.4358 96.7058 13.1371 95.5111 13.1371C94.4142 13.1371 93.5954 13.4615 93.0495 14.1104C92.5037 14.7592 92.2307 15.6347 92.2307 16.7264V17.4937H85.8708V16.8294L85.8605 16.8243ZM97.2465 23.7249C96.7007 23.9463 96.2011 24.1111 95.7583 24.2141C94.3215 24.5231 93.2967 25.0329 92.6788 25.7538C92.0659 26.4697 91.7569 27.4481 91.7569 28.6789C91.7569 29.7397 91.9629 30.6461 92.3698 31.3979C92.7817 32.1498 93.4615 32.5257 94.4194 32.5257C94.8983 32.5257 95.3927 32.4485 95.9076 32.294C96.4226 32.1395 96.8912 31.8923 97.3186 31.5524C97.7461 31.2125 98.0962 30.7645 98.3692 30.2186C98.6421 29.6728 98.7812 29.0239 98.7812 28.2669V22.8288C98.3022 23.2047 97.7873 23.5034 97.2414 23.7249H97.2465Z" fill="white"/>
<path d="M117.284 9.02733V12.2613H117.387C118.139 10.8915 119.112 9.89248 120.312 9.25907C121.507 8.62566 122.877 8.31152 124.417 8.31152C126.672 8.31152 128.408 8.92949 129.623 10.1603C130.838 11.391 131.446 13.3943 131.446 16.1597V36.6246H124.365V17.5964C124.365 16.1597 124.123 15.1606 123.649 14.5942C123.17 14.0277 122.403 13.7496 121.342 13.7496C118.845 13.7496 117.598 15.2739 117.598 18.3174V36.6298H110.518V9.02733H117.289H117.284Z" fill="white"/>
<path d="M150.36 33.6997C149.573 34.9974 148.692 35.9038 147.719 36.4187C146.745 36.9337 145.54 37.186 144.104 37.186C141.199 37.186 139.057 36.0737 137.692 33.8542C136.322 31.6295 135.643 27.9578 135.643 22.8235C135.643 17.6892 136.327 13.9918 137.692 11.7207C139.062 9.44456 141.199 8.31163 144.104 8.31163C145.437 8.31163 146.575 8.58456 147.513 9.13043C148.455 9.6763 149.3 10.5003 150.051 11.592H150.154V0H157.235V36.6247H150.463V33.6997H150.36ZM143.413 29.6211C143.877 31.1454 144.876 31.9024 146.416 31.9024C147.956 31.9024 149.006 31.1403 149.47 29.6211C149.933 28.102 150.16 25.8361 150.16 22.8235C150.16 19.8109 149.928 17.5502 149.47 16.0259C149.006 14.5067 147.992 13.7446 146.416 13.7446C144.84 13.7446 143.877 14.5067 143.413 16.0259C142.95 17.5502 142.723 19.8161 142.723 22.8235C142.723 25.8309 142.955 28.0968 143.413 29.6211Z" fill="white"/>
<path d="M161.818 16.5669C162.194 14.7542 162.807 13.2402 163.667 12.0249C164.522 10.8095 165.639 9.88772 167.025 9.25431C168.41 8.6209 170.109 8.30676 172.128 8.30676C174.25 8.27072 176.011 8.55395 177.412 9.15132C178.812 9.74868 179.925 10.6653 180.744 11.8961C181.562 13.1269 182.144 14.6512 182.489 16.4639C182.829 18.2766 183.004 20.3983 183.004 22.8238C183.004 25.2493 182.814 27.268 182.438 29.0807C182.062 30.8934 181.444 32.4074 180.589 33.6176C179.734 34.8329 178.617 35.729 177.231 36.3109C175.846 36.8928 174.147 37.1812 172.128 37.1812C170.006 37.2172 168.245 36.9494 166.845 36.3881C165.444 35.8217 164.331 34.9359 163.513 33.7206C162.694 32.5052 162.112 30.9861 161.767 29.1579C161.427 27.3298 161.252 25.2184 161.252 22.8238C161.252 20.4292 161.437 18.3796 161.818 16.5669ZM168.431 26.7221C168.498 27.922 168.662 28.9468 168.92 29.8016C169.177 30.6565 169.564 31.326 170.073 31.7997C170.588 32.2787 171.268 32.5155 172.123 32.5155C173.56 32.5155 174.548 31.7637 175.1 30.26C175.645 28.7563 175.918 26.2741 175.918 22.8238C175.918 19.3735 175.645 16.8913 175.1 15.3876C174.554 13.8839 173.56 13.132 172.123 13.132C171.268 13.132 170.583 13.3741 170.073 13.8478C169.558 14.3268 169.177 14.9962 168.92 15.8459C168.662 16.7008 168.503 17.7256 168.431 18.9255C168.364 20.1202 168.328 21.4231 168.328 22.8238C168.328 24.2245 168.359 25.5274 168.431 26.7221Z" fill="white"/>
<path d="M24.1164 16.8243C24.1164 15.2175 24.3739 13.8735 24.8837 12.7972C25.3987 11.7209 26.0887 10.8454 26.959 10.1811C27.8293 9.51682 28.8593 9.0379 30.0386 8.74437C31.2178 8.45598 32.4744 8.30664 33.8081 8.30664C35.9298 8.30664 37.6395 8.51263 38.9373 8.92461C40.235 9.33658 41.2443 9.9185 41.9653 10.6704C42.6811 11.4222 43.1703 12.3234 43.4278 13.3637C43.6853 14.409 43.814 15.542 43.814 16.7728V31.2898C43.814 32.5875 43.6492 35.8061 43.9943 36.6249H37.4026C37.1606 36.182 37.1503 34.2303 37.0473 33.7513H36.9443C36.1255 35.1881 35.1728 36.1202 34.0965 36.5476C33.0202 36.9751 31.6247 37.1914 29.915 37.1914C28.6842 37.1914 27.6388 36.9751 26.7839 36.5476C25.9291 36.1202 25.2442 35.5331 24.7344 34.7761C24.2194 34.0243 23.8435 33.1797 23.6066 32.2373C23.3645 31.2949 23.2461 30.368 23.2461 29.441C23.2461 28.1433 23.38 27.0207 23.6581 26.0834C23.931 25.141 24.3481 24.3377 24.9146 23.6734C25.4811 23.0091 26.1969 22.4529 27.0672 22.0049C27.9375 21.562 28.9932 21.1655 30.2239 20.8256L34.2253 19.7493C35.2861 19.4764 36.0225 19.1004 36.4293 18.6215C36.8413 18.1426 37.0473 17.4422 37.0473 16.5204C37.0473 15.4596 36.8001 14.6305 36.3058 14.0331C35.8114 13.4358 34.9617 13.1371 33.7669 13.1371C32.6701 13.1371 31.8513 13.4615 31.3054 14.1104C30.7595 14.7592 30.4866 15.6347 30.4866 16.7264V17.4937H24.1267V16.8294L24.1164 16.8243ZM35.5024 23.7249C34.9565 23.9463 34.457 24.1111 34.0141 24.2141C32.5774 24.5231 31.5526 25.0329 30.9346 25.7538C30.3218 26.4697 30.0128 27.4481 30.0128 28.6789C30.0128 29.7397 30.2188 30.6461 30.6256 31.3979C31.0376 32.1498 31.7174 32.5257 32.6752 32.5257C33.1541 32.5257 33.6485 32.4485 34.1635 32.294C34.6784 32.1395 35.1471 31.8923 35.5745 31.5524C36.0019 31.2125 36.3521 30.7645 36.625 30.2186C36.898 29.6728 37.037 29.0239 37.037 28.2669V22.8288C36.5581 23.2047 36.0431 23.5034 35.4972 23.7249H35.5024Z" fill="white"/>
</g>
<defs>
<clipPath id="clip0_243_3171">
<rect width="183" height="37.1912" fill="white"/>
</clipPath>
</defs>
</svg>
